<svg width="138" height="29" viewBox="0 0 138 29" fill="none" xmlns="http://www.w3.org/2000/svg">
    <path d="M80.299 17.32h2.914c-.093 1.111-.404 2.102-.933 2.973-.528.862-1.27 1.542-2.226 2.04-.956.497-2.118.746-3.486.746-1.049 0-1.993-.187-2.833-.56a6.211 6.211 0 0 1-2.156-1.608c-.599-.7-1.057-1.543-1.376-2.53-.31-.987-.466-2.09-.466-3.31V13.66c0-1.22.16-2.324.478-3.311.326-.987.793-1.83 1.399-2.53a6.047 6.047 0 0 1 2.18-1.62c.855-.373 1.814-.56 2.88-.56 1.351 0 2.494.249 3.426.746A5.39 5.39 0 0 1 82.27 8.45c.52.878.839 1.884.956 3.019H80.31c-.078-.73-.249-1.356-.513-1.877a2.644 2.644 0 0 0-1.142-1.189c-.505-.28-1.166-.42-1.982-.42-.668 0-1.251.125-1.749.373a3.301 3.301 0 0 0-1.247 1.096c-.334.482-.587 1.077-.758 1.784-.163.7-.244 1.5-.244 2.401v1.434c0 .855.073 1.632.221 2.332.156.691.389 1.286.7 1.783.318.498.722.882 1.212 1.154.49.272 1.076.408 1.76.408.832 0 1.504-.132 2.017-.396.52-.264.913-.649 1.177-1.154.272-.513.451-1.139.537-1.877zm8.06-12.38v17.906h-2.82V4.94h2.82zm2.303 11.739v-.268c0-.91.133-1.753.397-2.53a6.012 6.012 0 0 1 1.142-2.04 5.156 5.156 0 0 1 1.842-1.352c.73-.327 1.554-.49 2.471-.49.925 0 1.75.163 2.472.49a5.13 5.13 0 0 1 1.853 1.352c.506.575.89 1.255 1.155 2.04.264.777.396 1.62.396 2.53v.268c0 .91-.132 1.752-.396 2.53a6.053 6.053 0 0 1-1.155 2.04 5.345 5.345 0 0 1-1.841 1.352c-.723.319-1.543.478-2.46.478-.925 0-1.753-.16-2.483-.478a5.347 5.347 0 0 1-1.842-1.352 6.054 6.054 0 0 1-1.154-2.04 7.812 7.812 0 0 1-.397-2.53zm2.81-.268v.268c0 .567.058 1.104.175 1.609.116.505.299.948.548 1.329.248.38.567.68.956.897.388.218.85.327 1.387.327.52 0 .971-.11 1.352-.327a2.71 2.71 0 0 0 .956-.897 4.09 4.09 0 0 0 .548-1.33 6.708 6.708 0 0 0 .186-1.608v-.268c0-.56-.062-1.088-.186-1.586a4.072 4.072 0 0 0-.56-1.34 2.674 2.674 0 0 0-.956-.91c-.38-.225-.835-.338-1.364-.338-.528 0-.986.113-1.375.338-.38.218-.696.521-.944.91a4.23 4.23 0 0 0-.548 1.34 6.93 6.93 0 0 0-.175 1.586zm18.623 3.462v-9.64h2.821v12.613h-2.658l-.163-2.973zm.396-2.623.945-.023c0 .847-.094 1.628-.28 2.343a5.434 5.434 0 0 1-.863 1.854 4.03 4.03 0 0 1-1.492 1.224c-.606.287-1.333.43-2.18.43-.614 0-1.177-.088-1.69-.267a3.464 3.464 0 0 1-1.329-.828c-.366-.373-.649-.859-.851-1.457-.202-.599-.303-1.314-.303-2.145v-8.149h2.809v8.172c0 .459.054.843.163 1.154.109.303.257.548.443.735.187.186.404.318.653.396.249.078.513.117.793.117.8 0 1.43-.156 1.888-.467.467-.318.797-.746.991-1.282.202-.536.303-1.138.303-1.807zm12.76 2.984V4.94h2.821v17.906h-2.553l-.268-2.612zm-8.207-3.555v-.245c0-.956.112-1.826.338-2.611.225-.793.552-1.473.979-2.04a4.298 4.298 0 0 1 1.562-1.317c.614-.311 1.306-.467 2.075-.467.762 0 1.43.148 2.005.443a4.169 4.169 0 0 1 1.469 1.27c.404.545.727 1.198.968 1.96.241.753.412 1.592.513 2.517v.781a12.603 12.603 0 0 1-.513 2.472c-.241.746-.564 1.39-.968 1.935a4.187 4.187 0 0 1-1.48 1.259c-.576.295-1.248.443-2.017.443-.762 0-1.45-.16-2.064-.478a4.558 4.558 0 0 1-1.55-1.34 6.313 6.313 0 0 1-.979-2.03 9.195 9.195 0 0 1-.338-2.552zm2.809-.245v.245c0 .575.051 1.111.152 1.609.109.497.276.936.501 1.317.225.373.517.668.874.886.366.21.801.315 1.306.315.637 0 1.162-.14 1.574-.42.412-.28.734-.657.967-1.13a5.268 5.268 0 0 0 .49-1.61v-2.11a5.153 5.153 0 0 0-.292-1.282 3.409 3.409 0 0 0-.571-1.037 2.408 2.408 0 0 0-.897-.7c-.35-.17-.766-.256-1.248-.256-.513 0-.948.109-1.305.326a2.642 2.642 0 0 0-.886.898c-.226.38-.393.824-.502 1.329a7.74 7.74 0 0 0-.163 1.62z" fill="#797C8C"/>
    <g clip-path="url(#6p1k8r1rra)">
        <path d="M10.257 16.846h2.785c-.044.962.018 1.913-.154 2.82-.299 1.571-1.72 2.812-3.554 2.952a27.65 27.65 0 0 1-4.995-.08C2.7 22.363.85 20.97.903 18.516c.068-2.942.018-5.886.018-8.83 0-2.543 1.165-4.08 3.704-4.398 1.655-.208 3.374-.125 5.043.046 1.67.169 3.452 1.61 3.341 4.026-.023.511-.003 1.024-.003 1.575h-2.748c0-.413.006-.82 0-1.225-.019-1.2-.652-1.972-1.846-2.064a18.96 18.96 0 0 0-2.99.017c-.992.08-1.636.772-1.694 1.759-.058.989-.031 1.981-.033 2.974-.004 1.882-.006 3.764 0 5.647.004 1.371.662 2.13 2.03 2.218.908.058 1.829.05 2.733-.033 1.114-.101 1.754-.85 1.795-1.956.017-.46.002-.92.002-1.425M62.221 22.554h-2.658V13.38c0-1.56-.66-2.197-2.242-2.189-.818.006-1.563.202-2.195.747-.278.24-.411.501-.41.883.016 3.028.01 6.056.01 9.086v.634h-2.641V9.035h1.821l.351 1.152c.149-.102.27-.177.382-.263 1.544-1.21 3.315-1.329 5.097-.841 1.561.428 2.41 1.684 2.456 3.222.1 3.398.031 6.8.031 10.251M49.795 9h-2.7v13.527h2.7V9zM21.987 8.946v2.314c-.579 0-1.152-.066-1.702.019-.598.09-1.215.24-1.752.507-.825.413-1.26 1.048-1.227 2.089.081 2.665.027 5.336.027 8.003v.653h-2.65V9.044h1.836l.382 1.542c1.418-1.423 3.104-1.907 5.086-1.638M33.188 12.842c-.031-1.902-1.297-3.506-3.178-3.83-1.12-.194-2.298-.154-3.446-.102-2.13.096-3.754 1.782-3.825 3.904-.033.99-.006 1.983-.006 2.976h-.006c0 .956-.019 1.914.004 2.872.044 1.984 1.262 3.541 3.224 3.889 1.105.195 2.263.165 3.393.122 2.157-.078 3.805-1.78 3.842-3.932.03-1.966.03-3.934 0-5.9m-2.655 2.96c0 .918-.008 1.836-.025 2.752-.018 1.008-.764 1.72-1.779 1.778a12.63 12.63 0 0 1-1.55-.004c-.493-.033-.917-.22-1.222-.522a1.753 1.753 0 0 1-.52-1.198c-.044-.957-.026-2.873-.032-2.873 0-.804-.012-1.609.002-2.412.004-.188.021-.36.048-.52.106-.902.818-1.528 1.765-1.584.054-.004.106-.004.16-.008.06-.006.118-.013.178-.017a6.07 6.07 0 0 1 .988.017c.075.004.148.006.222.012.98.065 1.682.737 1.728 1.707 0 .027.002.056.004.084h.004v.144c.023.672.023 1.632.023 2.193v.453M45.317 12.426c-.09-1.797-1.5-3.335-2.994-3.5-1.83-.2-3.627-.179-5.105 1.173-.017.015-.068.01-.114.004l-.307-1.06h-1.856v.487c0 5.89 0 11.778.002 17.67 0 .168.03.337.045.506h2.585c.013-.203.038-.407.038-.612.004-1.54 0-3.082 0-4.622v-.653c1.469 1.133 3.064.947 4.62.837 1.527-.105 3.032-1.655 3.074-3.394 0-1.46-.004-5.742.008-6.836m-2.622 3.38c0 .917-.008 1.835-.025 2.751-.017.975-.718 1.672-1.68 1.768-.012 0-.021 0-.033.004-.023 0-.043.006-.066.006h-.03l-.09.008-.252.007c-.392.012-.785.006-1.177-.019-.768-.05-1.364-.476-1.609-1.125a1.017 1.017 0 0 1-.106-.394v-.055a1.418 1.418 0 0 1-.011-.13c0-.028-.002-.057-.004-.085h-.004v-.148c-.023-.655-.023-1.582-.023-2.145 0-.165 0-.33-.002-.497 0-.918.007-1.834.025-2.752 0-.107.013-.21.03-.309.012-.094.037-.192.076-.286.241-.684.872-1.139 1.672-1.183a12.63 12.63 0 0 1 1.55.004c.98.065 1.682.737 1.728 1.707 0 .027.002.056.004.084h.004v.158c.023.681.023 1.647.023 2.2v.43z" fill="#04A5D9"/>
        <path d="M53.994.846c-.156-.006-6.611-.217-6.789 6.463.15-.501.36-.974.63-1.408a7.279 7.279 0 0 1 1.288-1.536 9.775 9.775 0 0 1 1.591-1.173c.404-.24.791-.438 1.177-.609a.356.356 0 0 1 .479-.403.352.352 0 0 1 .198.459.355.355 0 0 1-.58.117c-.365.196-.731.42-1.108.687a9.314 9.314 0 0 0-1.433 1.24 6.66 6.66 0 0 0-1.077 1.512c-.029.056-.054.113-.08.17.17-.03.347-.066.536-.109.362-.084.656-.165.922-.255.285-.098.592-.207.883-.357.201-.102.37-.204.521-.311a.355.355 0 0 1-.011-.284.355.355 0 0 1 .66.263.358.358 0 0 1-.535.16c-.152.126-.324.249-.525.372-.295.18-.613.324-.887.443a11.175 11.175 0 0 1-1.771.566 5.26 5.26 0 0 0-.197.719c6.357-.419 6.11-6.65 6.108-6.726z" fill="#68BD4B"/>
        <path d="M63.394 7.145c.197 0 .39.05.578.151a1.174 1.174 0 0 1 .01 2.035 1.183 1.183 0 0 1-1.169 0 1.176 1.176 0 0 1-.592-1.016c0-.2.052-.399.158-.587a1.08 1.08 0 0 1 .44-.432c.187-.1.38-.151.578-.151h-.003zm0 .193a1 1 0 0 0-.483.127.906.906 0 0 0-.366.361 1 1 0 0 0-.133.49c0 .169.042.33.129.486a.992.992 0 0 0 1.34.361.98.98 0 0 0 .36-1.336.895.895 0 0 0-.365-.362 1.006 1.006 0 0 0-.482-.127zm-.517 1.625v-1.26h.434c.148 0 .256.012.322.035a.327.327 0 0 1 .12.545.404.404 0 0 1-.263.115c.044.02.081.04.108.068.05.05.114.132.187.25l.155.247h-.25l-.111-.2c-.089-.155-.16-.253-.214-.294a.265.265 0 0 0-.164-.044h-.12v.536h-.204v.002zm.204-.709h.249c.118 0 .199-.017.243-.051a.17.17 0 0 0 .066-.14.165.165 0 0 0-.031-.1.186.186 0 0 0-.087-.066.684.684 0 0 0-.205-.02h-.231v.38l-.004-.003z" fill="#AAA8AB"/>
    </g>
    <defs>
        <clipPath id="6p1k8r1rra">
            <path fill="#fff" transform="translate(.903 .846)" d="M0 0h63.665v26.859H0z"/>
        </clipPath>
    </defs>
</svg>
