<?xml version="1.0" encoding="UTF-8"?>
<svg version="1.1" xmlns="http://www.w3.org/2000/svg" width="512" height="512">
<path d="M0 0 C10.69967513 7.10112969 19.47220189 16.5653651 22.828125 29.265625 C25.00060292 43.77275029 24.21244098 57.62480775 15.67578125 69.921875 C15.08539063 70.6953125 14.495 71.46875 13.88671875 72.265625 C10.80044609 76.46173955 10.29965015 78.80973585 10.40625 84.0234375 C9.91249855 95.25171122 5.1611985 105.0319855 -2.88671875 112.734375 C-13.23424885 121.38357951 -24.54566972 123.39312862 -37.69921875 122.421875 C-52.10534866 119.56132767 -60.89766952 109.52194857 -70.69921875 99.421875 C-71.82509889 100.37917416 -72.94989025 101.33775395 -74.07421875 102.296875 C-74.70070312 102.83054687 -75.3271875 103.36421875 -75.97265625 103.9140625 C-79.17016821 106.56350027 -79.17016821 106.56350027 -80.01806641 110.58642578 C-80.05973811 111.92974163 -80.0907735 113.27341394 -80.11328125 114.6171875 C-80.14233047 115.67835281 -80.14233047 115.67835281 -80.17196655 116.76095581 C-80.23179527 119.02280585 -80.27815976 121.2847067 -80.32421875 123.546875 C-80.36239561 125.0794494 -80.40144717 126.61200228 -80.44140625 128.14453125 C-80.53749914 131.90347124 -80.62151724 135.66251168 -80.69921875 139.421875 C-79.73564453 139.26106445 -78.77207031 139.10025391 -77.77929688 138.93457031 C-73.32376855 138.30193329 -68.91232655 138.24256654 -64.41796875 138.21875 C-63.53565079 138.21164505 -62.65333282 138.2045401 -61.74427795 138.19721985 C-21.31155914 137.94588103 15.22646926 143.87145313 52.05078125 161.296875 C53.04424561 161.76633545 54.03770996 162.2357959 55.0612793 162.71948242 C63.52784463 166.83217161 71.13678908 171.5234797 79.30078125 176.421875 C79.30078125 161.241875 79.30078125 146.061875 79.30078125 130.421875 C71.56812637 130.57872743 71.56812637 130.57872743 63.83666992 130.78222656 C52.08444717 130.9011005 42.84082578 127.57446949 34.30078125 119.421875 C25.49227172 110.19474323 22.67503824 100.57143176 22.83007812 88.05712891 C23.25366827 77.35697139 26.90508746 69.20681583 34.30078125 61.421875 C35.01234375 60.97972656 35.72390625 60.53757812 36.45703125 60.08203125 C39.18238856 57.62805486 38.98548602 55.44979941 39.30078125 51.859375 C40.99278459 37.8027319 47.21542574 28.3536867 57.90625 19.2109375 C69.82569686 10.30538014 82.93532849 9.26684888 97.30078125 10.421875 C109.68088893 12.65216409 120.68095536 20.57532564 127.95703125 30.734375 C132.60384976 38.02350208 135.20343929 45.0892712 135.61328125 53.734375 C135.91605414 57.6340898 135.99548134 58.13077508 138.98828125 60.984375 C139.79265625 61.53544922 139.79265625 61.53544922 140.61328125 62.09765625 C146.29554321 66.55665348 150.13196422 74.39931319 151.30078125 81.421875 C152.43925186 93.9080283 151.63740151 104.72559641 144.11328125 115.171875 C136.99253174 123.62304055 128.2934521 129.63661108 117.06787109 130.73950195 C113.7404766 130.81288232 110.43978348 130.77320957 107.11328125 130.671875 C105.97052734 130.65382813 104.82777344 130.63578125 103.65039062 130.6171875 C100.86627078 130.57059135 98.08400236 130.50519538 95.30078125 130.421875 C95.10575602 137.77696093 94.98860885 145.12915166 94.96656227 152.48691177 C94.9539633 155.90530079 94.91615222 159.31925694 94.81738281 162.73632812 C93.62230274 178.5379327 93.62230274 178.5379327 99.15258789 192.61181641 C102.00108892 195.28655479 105.14515651 197.33235168 108.50952148 199.30029297 C111.2428654 201.01175296 113.39416542 203.19333694 115.65625 205.4765625 C116.45756348 206.26853027 117.25887695 207.06049805 118.08447266 207.87646484 C118.87772949 208.6752002 119.67098633 209.47393555 120.48828125 210.296875 C121.34341309 211.15619629 122.19854492 212.01551758 123.07958984 212.90087891 C129.26199279 219.19374486 134.95524421 225.65194336 140.12255859 232.79931641 C141.31094546 234.43587238 142.53095594 236.04448788 143.7578125 237.65234375 C160.77856079 260.29305559 185.12966234 300.1597776 183.30078125 329.421875 C181.40865423 329.95601612 179.51186489 330.47365829 177.61328125 330.984375 C176.55753906 331.27441406 175.50179688 331.56445312 174.4140625 331.86328125 C171.30078125 332.421875 171.30078125 332.421875 169.06935406 331.96465218 C165.629971 331.29036302 162.3964776 331.29646514 158.89033508 331.29603386 C158.14993292 331.29458042 157.40953075 331.29312698 156.64669216 331.29162949 C154.15807693 331.28797117 151.66952301 331.29145516 149.1809082 331.29489136 C147.38174311 331.29373948 145.58257825 331.2921515 143.78341389 331.29016411 C138.83327116 331.28598003 133.88314766 331.28805736 128.93300486 331.29115033 C123.59688593 331.29340793 118.26077036 331.28992301 112.9246521 331.28717041 C102.4687489 331.28271761 92.01285286 331.28368702 81.55694938 331.28658305 C73.06120987 331.288839 64.56547238 331.28914877 56.06973267 331.28805923 C54.86179623 331.287906 53.65385979 331.28775277 52.40931922 331.28759489 C49.95562355 331.28727518 47.50192787 331.28695096 45.0482322 331.2866223 C22.0255704 331.28376894 -0.99708742 331.28705228 -24.01974857 331.29242267 C-43.78562864 331.29689057 -63.55150284 331.2961146 -83.31738281 331.29150391 C-106.25617603 331.28615561 -129.19496575 331.28404362 -152.1337595 331.28711617 C-154.57856305 331.28743473 -157.02336661 331.2877491 -159.46817017 331.28805923 C-161.27263053 331.28829065 -161.27263053 331.28829065 -163.11354464 331.28852674 C-171.60168808 331.28939112 -180.08982931 331.28793069 -188.57797241 331.28557968 C-198.91842004 331.28277865 -209.25886007 331.28352637 -219.59930682 331.28886043 C-224.8778098 331.29149332 -230.15630011 331.29250942 -235.43480301 331.28921127 C-240.26324419 331.28623991 -245.0916609 331.28785526 -249.92009985 331.29318883 C-251.67036401 331.2943094 -253.42063022 331.29372974 -255.17089307 331.29131304 C-257.54354927 331.2882873 -259.91612085 331.29137624 -262.28877258 331.29603386 C-263.60862813 331.29619621 -264.92848368 331.29635856 -266.28833485 331.29652584 C-269.2407713 331.40502717 -271.82119823 331.83216423 -274.69921875 332.421875 C-277.8125 331.86328125 -277.8125 331.86328125 -281.01171875 330.984375 C-282.08035156 330.69691406 -283.14898437 330.40945313 -284.25 330.11328125 C-285.46236328 329.77103516 -285.46236328 329.77103516 -286.69921875 329.421875 C-283.34804557 291.88004509 -261.05714358 249.71780219 -235.12060547 222.7824707 C-233.13122184 219.47856306 -233.22064027 216.34379702 -233.1875 212.59375 C-233.1695488 211.84474426 -233.1515976 211.09573853 -233.13310242 210.32403564 C-233.07907332 207.94003876 -233.04512872 205.5562412 -233.01171875 203.171875 C-232.978539 201.55205564 -232.94404872 199.93226256 -232.90820312 198.3125 C-232.8208909 194.34893087 -232.76076438 190.38626263 -232.69921875 186.421875 C-227.41921875 186.421875 -222.13921875 186.421875 -216.69921875 186.421875 C-216.20421875 194.341875 -216.20421875 194.341875 -215.69921875 202.421875 C-213.90484375 200.75125 -212.11046875 199.080625 -210.26171875 197.359375 C-196.22082769 184.421875 -196.22082769 184.421875 -192.69921875 184.421875 C-192.69921875 171.881875 -192.69921875 159.341875 -192.69921875 146.421875 C-187.41921875 146.421875 -182.13921875 146.421875 -176.69921875 146.421875 C-176.69921875 155.001875 -176.69921875 163.581875 -176.69921875 172.421875 C-170.99872557 169.22429911 -170.99872557 169.22429911 -165.30200195 166.02001953 C-164.22438599 165.41843018 -164.22438599 165.41843018 -163.125 164.8046875 C-162.03312378 164.19197998 -162.03312378 164.19197998 -160.91918945 163.56689453 C-158.58616392 162.36356343 -156.13653883 161.39680303 -153.69921875 160.421875 C-153.36921875 147.881875 -153.03921875 135.341875 -152.69921875 122.421875 C-147.41921875 122.421875 -142.13921875 122.421875 -136.69921875 122.421875 C-136.69921875 132.651875 -136.69921875 142.881875 -136.69921875 153.421875 C-132.40921875 151.771875 -128.11921875 150.121875 -123.69921875 148.421875 C-119.48883419 147.23978774 -115.32124235 146.12426904 -111.07421875 145.109375 C-110.01332031 144.84576172 -108.95242187 144.58214844 -107.859375 144.31054688 C-100.1378957 142.421875 -100.1378957 142.421875 -96.69921875 142.421875 C-96.73587646 141.16117188 -96.77253418 139.90046875 -96.81030273 138.6015625 C-96.93756376 133.89798134 -97.01756593 129.19455039 -97.08374023 124.48974609 C-97.11881641 122.45856081 -97.1664923 120.42755067 -97.22729492 118.39697266 C-97.31278465 115.46733305 -97.35203439 112.54003974 -97.3828125 109.609375 C-97.4189415 108.71009277 -97.4550705 107.81081055 -97.49229431 106.88427734 C-97.49615095 100.60905079 -95.87709183 97.52890669 -91.49330139 93.05786133 C-89.30631308 91.06359256 -87.09373732 89.16334305 -84.69921875 87.421875 C-86.24399688 83.6591752 -88.57268517 81.43906104 -91.51171875 78.671875 C-100.49226811 69.82072837 -104.75630288 61.16615461 -105.07421875 48.421875 C-104.75528967 36.14310535 -100.4901282 25.71839627 -91.57421875 17.109375 C-83.75983918 10.57755857 -73.95231067 6.89204082 -63.76171875 7.734375 C-59.88356506 7.7806123 -58.05338543 7.37937107 -55.19921875 4.734375 C-54.65265625 4.18910156 -54.10609375 3.64382812 -53.54296875 3.08203125 C-39.85803209 -9.24021045 -15.17647866 -8.8730787 0 0 Z " fill="#000101" transform="translate(312.69921875,165.578125)"/>
<path d="M0 0 C1.05636154 -0.00167679 1.05636154 -0.00167679 2.13406372 -0.00338745 C33.41668635 0.02084318 33.41668635 0.02084318 44.125 5.375 C43.68800781 6.6434375 43.68800781 6.6434375 43.2421875 7.9375 C42.07097614 11.34357274 42.07097614 11.34357274 41.3828125 14.8125 C39.98223683 19.21706899 38.78952064 22.43243354 35.125 25.375 C27.34314138 28.55878774 18.87495901 29.53276935 10.61572266 30.81396484 C7.19884834 31.36313096 3.8066106 31.94109348 0.41796875 32.64453125 C-0.53182861 32.83249268 -1.48162598 33.0204541 -2.46020508 33.21411133 C-5.92129124 34.87799412 -6.50261922 36.85004936 -7.875 40.375 C-9.31233627 44.96612402 -10.41227096 49.64194577 -11.5625 54.3125 C-11.88283203 55.56224609 -12.20316406 56.81199219 -12.53320312 58.09960938 C-12.83548828 59.31326172 -13.13777344 60.52691406 -13.44921875 61.77734375 C-13.72338623 62.87554443 -13.99755371 63.97374512 -14.2800293 65.10522461 C-14.93269782 68.69208939 -15.24428182 71.74040548 -14.875 75.375 C-12.03795669 78.81300321 -8.826227 80.69236366 -4.91088867 82.75073242 C-4.32302078 83.06182449 -3.73515289 83.37291656 -3.12947083 83.69343567 C-1.18896016 84.7156794 0.75788228 85.72480042 2.70703125 86.73046875 C3.3807395 87.0785943 4.05444775 87.42671986 4.7485714 87.78539467 C8.32938085 89.63212841 11.91612981 91.46677348 15.50708008 93.29370117 C18.43936381 94.78850397 21.35763655 96.30635443 24.26586914 97.84741211 C45.44488295 109.2159539 45.44488295 109.2159539 69.01158142 112.08381653 C75.49228637 111.95001264 75.49228637 111.95001264 79.15454102 114.40991211 C81.40014957 117.26121923 82.95982964 119.96787226 84.5 123.25 C88.30609394 131.44549136 88.30609394 131.44549136 95.32421875 136.40625 C96.91591387 136.76903813 98.51761474 137.08965601 100.125 137.375 C101.99928261 137.82308214 103.87295732 138.27371283 105.74609375 138.7265625 C107.68386466 139.15572446 109.62268784 139.5801609 111.5625 140 C113.52003722 140.42737655 115.47709595 140.85695256 117.43359375 141.2890625 C118.28751709 141.4742041 119.14144043 141.6593457 120.02124023 141.85009766 C122.125 142.375 122.125 142.375 124.125 143.375 C130.68128565 143.35002378 136.5580814 141.45501806 142.61328125 139.12890625 C143.47890182 138.79890121 144.3445224 138.46889618 145.2363739 138.12889099 C147.0513886 137.42989891 148.86394154 136.72448356 150.67407227 136.01293945 C153.43559277 134.93824223 156.21319597 133.91576745 158.99414062 132.89257812 C167.94949991 129.76043118 167.94949991 129.76043118 175.12939453 123.9296875 C176.16306603 121.3837472 176.68816376 119.08190481 177.125 116.375 C177.66365604 114.79966084 178.23101634 113.23381267 178.828125 111.6796875 C179.34594724 110.20389412 179.8615991 108.72733729 180.375 107.25 C180.643125 106.48429687 180.91125 105.71859375 181.1875 104.9296875 C181.83530568 103.07881414 182.48044918 101.22700935 183.125 99.375 C184.115 99.375 185.105 99.375 186.125 99.375 C187.34838867 100.7734375 187.34838867 100.7734375 188.54296875 102.75 C189.21138794 103.84417236 189.21138794 103.84417236 189.89331055 104.96044922 C190.36164307 105.75725098 190.82997559 106.55405273 191.3125 107.375 C191.80081299 108.19371582 192.28912598 109.01243164 192.79223633 109.85595703 C203.58901039 128.17807731 219.125 154.64321669 219.125 176.375 C74.585 176.375 -69.955 176.375 -218.875 176.375 C-214.26871593 156.79829272 -214.26871593 156.79829272 -211.1875 148.9375 C-210.88005859 148.12474609 -210.57261719 147.31199219 -210.25585938 146.47460938 C-208.12548998 140.87597997 -208.12548998 140.87597997 -206.875 138.375 C-206.215 138.375 -205.555 138.375 -204.875 138.375 C-203.4755541 140.30798465 -202.15391407 142.29774015 -200.875 144.3125 C-198.4989883 148.50999505 -198.4989883 148.50999505 -194.875 151.375 C-190.78884719 151.60932625 -186.70099614 151.60339964 -182.60864258 151.61523438 C-180.58047061 151.62491423 -178.55332358 151.65592532 -176.52539062 151.6875 C-174.60049805 151.69523437 -174.60049805 151.69523437 -172.63671875 151.703125 C-170.872677 151.71714355 -170.872677 151.71714355 -169.07299805 151.73144531 C-165.52983326 151.3365281 -163.70463483 150.50592473 -160.875 148.375 C-159.82796767 146.88328213 -158.78144981 145.39118449 -157.7421875 143.89404297 C-154.2750669 139.30528705 -151.13323508 136.77295996 -145.35058594 135.75390625 C-137.26050739 134.98421793 -129.09443637 135.1999433 -120.984375 135.50341797 C-117.84961575 135.37395162 -116.3225717 135.31071553 -113.875 133.375 C-112.47684926 130.7255605 -112.47684926 130.7255605 -111.48046875 127.51953125 C-111.08279297 126.33939453 -110.68511719 125.15925781 -110.27539062 123.94335938 C-109.87513672 122.70392578 -109.47488281 121.46449219 -109.0625 120.1875 C-108.43311523 118.35735352 -108.43311523 118.35735352 -107.79101562 116.49023438 C-107.39978516 115.30365234 -107.00855469 114.11707031 -106.60546875 112.89453125 C-106.24864014 111.81276611 -105.89181152 110.73100098 -105.52416992 109.61645508 C-104.59216483 104.9627388 -104.80271317 101.17842591 -107.2578125 97.04931641 C-108.12019531 96.02330322 -108.12019531 96.02330322 -109 94.9765625 C-119.18997505 81.95691583 -121.81017625 72.28006861 -120.55126953 55.79077148 C-120.99040434 52.51381908 -122.37522805 51.44283661 -124.875 49.375 C-126.97400132 48.08719705 -126.97400132 48.08719705 -129.125 47.125 C-129.83140625 46.78984375 -130.5378125 46.4546875 -131.265625 46.109375 C-131.79671875 45.86703125 -132.3278125 45.6246875 -132.875 45.375 C-128.64709204 40.6984161 -123.85250687 37.54038212 -118.5 34.25 C-117.58387939 33.68595459 -116.66775879 33.12190918 -115.72387695 32.54077148 C-100.64919553 23.44593914 -84.57874466 15.94896697 -67.875 10.375 C-66.7921875 10.01019531 -65.709375 9.64539063 -64.59375 9.26953125 C-53.6076082 5.85598005 -42.22735989 4.10765348 -30.875 2.375 C-29.71838867 2.19404785 -28.56177734 2.0130957 -27.37011719 1.82666016 C-18.22689452 0.4881307 -9.23465098 -0.02089071 0 0 Z " fill="#A6DAFB" transform="translate(260.875,319.625)"/>
<path d="M0 0 C4.88201639 3.92090354 8.8728567 8.35850344 10.74609375 14.40234375 C11.08203125 17.671875 11.08203125 17.671875 11.12109375 21.21484375 C11.14945313 22.37628906 11.1778125 23.53773437 11.20703125 24.734375 C10.78623438 28.08291958 10.23370208 29.73079177 8.71728516 32.6315918 C8.16664902 33.69569527 8.16664902 33.69569527 7.60488892 34.78129578 C7.32148651 35.31624161 7.03808411 35.85118744 6.74609375 36.40234375 C7.49698273 36.55854691 8.2478717 36.71475006 9.02151489 36.87568665 C16.11459482 38.35276639 23.2059273 39.83786098 30.29545784 41.3318758 C33.93988437 42.09959282 37.58489654 42.86424796 41.23144531 43.62182617 C44.75376529 44.35371472 48.27428505 45.09374944 51.79372787 45.83934593 C53.13345892 46.12169399 54.47380215 46.40115392 55.81476212 46.67760658 C57.69990527 47.06677471 59.5826748 47.46738667 61.46533203 47.8684082 C62.53566681 48.09268997 63.60600159 48.31697174 64.70877075 48.54804993 C68.02470688 49.48070798 70.78448253 50.64207455 73.74609375 52.40234375 C76.19036108 57.68221781 75.70295848 61.61669822 73.93359375 66.96484375 C73.70712158 67.68663818 73.48064941 68.40843262 73.24731445 69.15209961 C68.16900867 84.78641572 61.4938836 99.91750689 53.74609375 114.40234375 C53.4011084 115.05364258 53.05612305 115.70494141 52.70068359 116.37597656 C42.72781499 135.0813753 30.38197373 152.49111488 15.9453125 168.015625 C14.13985723 169.97500897 12.42208402 171.95815928 10.74609375 174.02734375 C7.99923234 177.28924167 7.2723463 177.3505812 2.93359375 177.77734375 C-0.41749503 177.72309951 -1.07403562 177.54711767 -3.81640625 175.33984375 C-4.62078125 174.37046875 -5.42515625 173.40109375 -6.25390625 172.40234375 C-7.36988851 171.28906363 -8.49558681 170.18546964 -9.62890625 169.08984375 C-12.66557443 166.05317557 -15.50086411 162.88789374 -18.3046875 159.63671875 C-20.58411319 157.02382999 -22.91602978 154.46304354 -25.25390625 151.90234375 C-30.04412631 146.64902085 -34.72566913 141.30958534 -39.390625 135.9453125 C-40.10863281 135.12675781 -40.82664062 134.30820313 -41.56640625 133.46484375 C-42.22253906 132.71332031 -42.87867187 131.96179688 -43.5546875 131.1875 C-45.14345473 129.31610178 -45.14345473 129.31610178 -47.25390625 128.40234375 C-47.52396484 129.11680664 -47.79402344 129.83126953 -48.07226562 130.56738281 C-49.26584125 133.43097789 -50.64217148 136.05703268 -52.16015625 138.76171875 C-52.7337085 139.78579834 -53.30726074 140.80987793 -53.89819336 141.86499023 C-54.51057861 142.94981689 -55.12296387 144.03464355 -55.75390625 145.15234375 C-56.38756104 146.27906494 -57.02121582 147.40578613 -57.67407227 148.56665039 C-61.50391189 155.35752118 -65.38726226 162.11219121 -69.36450195 168.81762695 C-73.1069574 175.12959663 -76.77734862 181.48209465 -80.44140625 187.83984375 C-81.07143555 188.93111572 -81.70146484 190.0223877 -82.35058594 191.14672852 C-85.37194096 196.3837693 -88.38483641 201.62505112 -91.37089539 206.88227844 C-92.7301969 209.27407353 -94.09420604 211.66316738 -95.45864868 214.05203247 C-96.42067885 215.74095511 -97.37582336 217.43379398 -98.33081055 219.12670898 C-99.21119995 220.66693726 -99.21119995 220.66693726 -100.109375 222.23828125 C-100.87737427 223.59252197 -100.87737427 223.59252197 -101.66088867 224.97412109 C-105.58826268 230.96058269 -105.58826268 230.96058269 -109.32324219 231.95117188 C-115.49014053 231.90110233 -119.38487374 230.23622826 -124.50390625 226.90234375 C-125.22900391 226.45181641 -125.95410156 226.00128906 -126.70117188 225.53710938 C-128.17880316 224.61731957 -129.65153923 223.68961649 -131.11914062 222.75390625 C-133.13118889 221.48003854 -135.16125162 220.24610608 -137.20703125 219.02734375 C-146.10579128 213.69857368 -146.10579128 213.69857368 -147.25390625 211.40234375 C-148.3496909 203.36968511 -144.89847748 198.23516266 -140.87890625 191.46484375 C-139.91488892 189.7950647 -139.91488892 189.7950647 -138.93139648 188.09155273 C-137.05573801 184.85160864 -135.15825323 181.62548624 -133.25390625 178.40234375 C-132.3768298 176.9027964 -131.50041747 175.40286019 -130.625 173.90234375 C-129.06751176 171.24072676 -127.49943322 168.5856815 -125.92578125 165.93359375 C-122.5938873 160.30366542 -119.33241302 154.63316138 -116.06640625 148.96484375 C-115.43637695 147.87139648 -114.80634766 146.77794922 -114.15722656 145.65136719 C-112.85725514 143.39462729 -111.55745305 141.13778984 -110.2578125 138.88085938 C-108.20644389 135.31914798 -106.15233786 131.75901972 -104.09765625 128.19921875 C-103.75804367 127.61079697 -103.41843109 127.02237518 -103.06852722 126.41612244 C-101.43809763 123.59125291 -99.80757117 120.76643932 -98.17700195 117.94165039 C-95.19168863 112.76806348 -92.21186792 107.59162143 -89.25390625 102.40234375 C-90.2903125 102.2321875 -91.32671875 102.06203125 -92.39453125 101.88671875 C-93.76447095 101.64275689 -95.13425484 101.39791896 -96.50390625 101.15234375 C-97.18582031 101.04277344 -97.86773437 100.93320313 -98.5703125 100.8203125 C-101.67609008 100.24740207 -104.08075012 99.51451407 -106.73828125 97.79296875 C-108.45940005 95.07821435 -108.97464113 92.99407139 -108.79736328 89.77636719 C-107.59535517 84.52554648 -104.47691737 80.07155012 -101.69140625 75.52734375 C-101.00596391 74.38000862 -100.3224044 73.23154678 -99.640625 72.08203125 C-98.2245199 69.69772848 -96.80048444 67.31844881 -95.37060547 64.94238281 C-92.08864462 59.4733823 -88.92809399 53.93431898 -85.75390625 48.40234375 C-84.51744412 46.25881626 -83.28046192 44.11558868 -82.04296875 41.97265625 C-79.75406639 38.00562391 -77.46791814 34.03703173 -75.18536377 30.06634521 C-74.1611496 28.28484797 -73.13632974 26.50370053 -72.11132812 24.72265625 C-70.8275725 22.4915775 -69.54494686 20.25984802 -68.26367188 18.02734375 C-65.70473113 13.58242126 -63.13616451 9.14343594 -60.4765625 4.7578125 C-60.10281494 4.14059326 -59.72906738 3.52337402 -59.34399414 2.88745117 C-57.62011621 0.53888466 -56.08862621 -0.11367967 -53.25390625 -0.59765625 C-49.22155262 -0.41611782 -47.67564724 -0.01674478 -44.76953125 2.87109375 C-44.021875 3.87140625 -43.27421875 4.87171875 -42.50390625 5.90234375 C-39.86179098 9.72194048 -39.86179098 9.72194048 -36.25390625 12.40234375 C-35.97546875 11.38140625 -35.97546875 11.38140625 -35.69140625 10.33984375 C-33.03800946 4.91768509 -28.24411794 -0.06811129 -22.46484375 -2.16015625 C-15.07878369 -3.62170877 -6.62173198 -4.00151976 0 0 Z " fill="#010101" transform="translate(163.25390625,21.59765625)"/>
<path d="M0 0 C6.37586387 1.11698762 12.30668611 2.58553585 18.3125 5 C19.45247437 5.45403198 19.45247437 5.45403198 20.61547852 5.91723633 C46.39446359 16.37990258 69.30025727 30.0859689 89.77734375 48.96484375 C91.78864691 50.80647634 93.84819672 52.5608619 95.9375 54.3125 C102.18090871 59.73877546 108.41095315 66.11642972 113 73 C112.51281767 77.88806269 110.31814605 82.12661421 108.3046875 86.55078125 C106.85852007 89.9772323 106.85852007 89.9772323 106.5078125 93.73046875 C105.77276895 98.18156578 105.09732125 101.6722395 102 105 C94.58885035 109.53871178 86.18110559 112.28470194 77.96679688 115.0012207 C75.02586684 115.95160136 75.02586684 115.95160136 72.34155273 117.11425781 C63.3698387 120.50799971 50.50999117 116.41378932 42 113 C38.53446284 110.49681169 36.99428751 107.73024763 35 104 C33.73546811 102.00088527 32.43402682 100.02997756 31.12158203 98.06201172 C30.21973094 96.70618504 29.33216158 95.34072976 28.46044922 93.96533203 C26.03388263 90.02744872 26.03388263 90.02744872 22 88 C20.41254854 88.00647939 18.82504089 88.0663749 17.24023438 88.15820312 C-0.8584968 88.69341093 -14.07394853 82.94752191 -29.69067383 74.47344971 C-32.75422489 72.82520467 -35.84737146 71.23439277 -38.9375 69.63671875 C-56.46547117 60.53452883 -56.46547117 60.53452883 -58 59 C-57.95029304 52.96060467 -57.44843847 41.44843847 -53 37 C-50.7246289 36.52270492 -48.43818304 36.09804018 -46.1484375 35.6953125 C-44.72521572 35.43905018 -43.30204013 35.18253128 -41.87890625 34.92578125 C-39.63484563 34.52545765 -37.39040426 34.12769499 -35.14501953 33.73486328 C-32.97809365 33.35410276 -30.81325945 32.96283465 -28.6484375 32.5703125 C-26.70203369 32.22637451 -26.70203369 32.22637451 -24.71630859 31.87548828 C-17.27778065 30.17662667 -17.27778065 30.17662667 -11.92016602 25.08911133 C-11.09536743 23.35310669 -11.09536743 23.35310669 -10.25390625 21.58203125 C-9.80264626 20.65616463 -9.80264626 20.65616463 -9.3422699 19.71159363 C-8.394368 17.75464037 -7.47833119 15.7846332 -6.5625 13.8125 C-5.92197637 12.47622681 -5.27941729 11.14092725 -4.63476562 9.80664062 C-3.06614335 6.54868912 -1.52572694 3.27829829 0 0 Z " fill="#62BB93" transform="translate(321,329)"/>
<path d="M0 0 C3.16972553 1.38114402 5.02363246 2.93225894 7.3125 5.5 C10.9579809 9.21987847 14.83258275 12.21052576 19.125 15.125 C19.69130127 15.52009766 20.25760254 15.91519531 20.84106445 16.32226562 C33.02319423 24.38282186 46.29285436 27.54597308 60.375 30.375 C62.09403031 30.73172476 63.81278299 31.08979015 65.53125 31.44921875 C69.6844726 32.31491441 73.84099043 33.16256829 78 34 C77.44078731 37.12699848 76.74768119 39.92105091 75.46875 42.828125 C75.00227051 43.89063477 75.00227051 43.89063477 74.52636719 44.97460938 C74.01831543 46.10092773 74.01831543 46.10092773 73.5 47.25 C73.14325195 48.04212891 72.78650391 48.83425781 72.41894531 49.65039062 C62.58046499 71.2111334 50.16373668 93.38114385 33 110 C21.27870021 97.37410072 21.27870021 97.37410072 17.3125 92.75 C16.21329035 91.49563874 15.1090115 90.24570362 14 89 C13.36320312 88.28457031 12.72640625 87.56914062 12.0703125 86.83203125 C-0.45619058 73.5025472 -16.56931735 66.55487912 -34 62 C-33.05408267 57.65437603 -30.98574197 54.08940824 -28.8125 50.25 C-28.15906616 49.08428467 -28.15906616 49.08428467 -27.49243164 47.89501953 C-23.12706518 40.14632357 -18.63182507 32.47298382 -14.13549805 24.79980469 C-9.32599292 16.58674151 -4.62416612 8.31860571 0 0 Z " fill="#B3B3B3" transform="translate(111,45)"/>
<path d="M0 0 C6.63460696 4.71715849 11.29501688 11.56343968 13.3125 19.4375 C13.33129643 21.85418337 13.3081269 24.27144266 13.25 26.6875 C13.4790711 31.36513193 13.70330454 33.68656104 16.6796875 37.35546875 C18.63183341 39.02540789 20.61661185 40.65798702 22.6328125 42.25 C27.11470237 45.90868561 28.84196609 49.37902959 29.7109375 55.02734375 C30.17652403 62.93122936 27.90213321 69.30767927 22.703125 75.2890625 C15.63613253 81.86979402 8.09824852 82.88818619 -1.1875 82.625 C-2.1053125 82.61146484 -3.023125 82.59792969 -3.96875 82.58398438 C-6.20896803 82.54898097 -8.44790594 82.49988869 -10.6875 82.4375 C-12.05346749 78.00409675 -12.25817701 74.8383133 -10.6875 70.4375 C-5.24480289 65.05465973 1.71314861 61.2323118 8.3125 57.4375 C7.0472943 54.17101167 5.78374541 51.43838199 3.6875 48.625 C2.90375 47.573125 2.12 46.52125 1.3125 45.4375 C-3.10467399 47.04374509 -6.46006518 49.02182296 -10.6875 51.4375 C-10.6875 45.8275 -10.6875 40.2175 -10.6875 34.4375 C-15.9675 34.4375 -21.2475 34.4375 -26.6875 34.4375 C-26.6875 40.0475 -26.6875 45.6575 -26.6875 51.4375 C-29.19401042 49.84244792 -31.70052083 48.24739583 -34.20703125 46.65234375 C-36.72411817 45.06011229 -36.72411817 45.06011229 -39.6875 46.4375 C-41.40204592 48.41475378 -41.40204592 48.41475378 -42.9375 50.8125 C-43.47890625 51.60398438 -44.0203125 52.39546875 -44.578125 53.2109375 C-46.05364946 55.51590656 -46.05364946 55.51590656 -44.6875 58.4375 C-42.88603873 59.76519847 -42.88603873 59.76519847 -40.65234375 60.93359375 C-27.28644301 68.6995834 -27.28644301 68.6995834 -25.49609375 73.89453125 C-25.55728593 76.92894339 -25.85090659 79.52491553 -26.6875 82.4375 C-30.18721199 82.5548794 -33.68640955 82.62513961 -37.1875 82.6875 C-38.16976563 82.72101563 -39.15203125 82.75453125 -40.1640625 82.7890625 C-48.01930762 82.8937991 -53.16586017 81.46163833 -59.1484375 76.32421875 C-64.9826595 69.62081674 -67.30814916 63.93416305 -67.05078125 54.98046875 C-66.01537679 47.73263756 -62.06311783 43.62439905 -56.4375 39.3125 C-53.09358907 36.50124745 -51.83834835 35.18200962 -50.9609375 30.8515625 C-50.86207889 28.24481715 -50.80859925 25.63595128 -50.80078125 23.02734375 C-50.64394143 18.057144 -49.25947737 14.62520674 -46.6875 10.4375 C-46.2646875 9.74140625 -45.841875 9.0453125 -45.40625 8.328125 C-34.7324111 -7.44543694 -15.73906547 -9.40082929 0 0 Z " fill="#62BA92" transform="translate(418.6875,197.5625)"/>
<path d="M0 0 C6.69809768 4.76229994 11.16407958 11.54657266 13.3125 19.4375 C14.54130134 29.39725826 12.62558957 38.01951942 7.0078125 46.37890625 C5.24581997 48.56224481 3.40635403 50.3673224 1.16015625 52.046875 C-1.97200646 56.09948299 -0.85866657 60.62000147 -0.53125 65.53125 C-0.24982172 72.52005222 -2.04383225 77.36570791 -6.6171875 82.6796875 C-7.25914062 83.21851563 -7.90109375 83.75734375 -8.5625 84.3125 C-9.19929688 84.86679687 -9.83609375 85.42109375 -10.4921875 85.9921875 C-16.92038829 90.22427699 -24.25764557 90.38711453 -31.6875 89.4375 C-40.71019125 86.29221915 -47.29675179 78.22355222 -53.6875 71.4375 C-52.70883662 70.29123678 -51.72955413 69.14550212 -50.75 68 C-50.20472656 67.36191406 -49.65945313 66.72382813 -49.09765625 66.06640625 C-48.31954305 65.16758851 -47.52813472 64.27813472 -46.6875 63.4375 C-40.55071141 63.94051546 -34.54051577 64.937681 -28.484375 66.03515625 C-25.33360207 66.55615748 -25.33360207 66.55615748 -20.6875 66.4375 C-19.6975 61.8175 -18.7075 57.1975 -17.6875 52.4375 C-21.9775 51.7775 -26.2675 51.1175 -30.6875 50.4375 C-28.73362336 46.52974671 -27.29857271 44.96127661 -24.0625 42.1875 C-23.24523437 41.48109375 -22.42796875 40.7746875 -21.5859375 40.046875 C-20.95945312 39.51578125 -20.33296875 38.9846875 -19.6875 38.4375 C-20.57717344 37.34910226 -21.47461574 36.26705392 -22.375 35.1875 C-22.87386719 34.58421875 -23.37273437 33.9809375 -23.88671875 33.359375 C-25.9788505 31.1265576 -28.26599069 29.30210342 -30.6875 27.4375 C-31.38617188 28.159375 -32.08484375 28.88125 -32.8046875 29.625 C-33.71476562 30.553125 -34.62484375 31.48125 -35.5625 32.4375 C-36.46742188 33.365625 -37.37234375 34.29375 -38.3046875 35.25 C-40.6875 37.4375 -40.6875 37.4375 -42.6875 37.4375 C-43.3475 33.8075 -44.0075 30.1775 -44.6875 26.4375 C-52.6075 26.9325 -52.6075 26.9325 -60.6875 27.4375 C-60.30335938 28.97921875 -59.91921875 30.5209375 -59.5234375 32.109375 C-59.03572897 34.13524122 -58.54878974 36.16129275 -58.0625 38.1875 C-57.80726563 39.20328125 -57.55203125 40.2190625 -57.2890625 41.265625 C-57.05703125 42.2453125 -56.825 43.225 -56.5859375 44.234375 C-56.36599121 45.13510742 -56.14604492 46.03583984 -55.91943359 46.96386719 C-55.64893958 49.84875705 -56.10626267 51.04597688 -57.6875 53.4375 C-59.6328125 55.140625 -59.6328125 55.140625 -61.8125 56.6875 C-62.89917969 57.46867187 -62.89917969 57.46867187 -64.0078125 58.265625 C-64.56210938 58.65234375 -65.11640625 59.0390625 -65.6875 59.4375 C-74.69624163 51.13872925 -81.74807538 44.23920052 -82.3125 31.3125 C-82.01534959 23.90783311 -80.07915886 19.88323998 -74.97265625 14.6953125 C-68.96158317 9.1972194 -64.08465748 8.16420704 -56.125 8.4375 C-49.57228896 8.88284248 -49.57228896 8.88284248 -43.6875 6.4375 C-43.130625 5.674375 -42.57375 4.91125 -42 4.125 C-31.21272232 -8.41156595 -13.28200899 -7.94669352 0 0 Z " fill="#61B992" transform="translate(306.6875,181.5625)"/>
<path d="M0 0 C7.47462291 2.84747539 7.47462291 2.84747539 9.625 5 C10.32974047 8.31749464 9.92302141 11.57253511 9.6875 14.9375 C9.43579218 25.93118206 13.0444766 32.42491465 19.87329102 40.85717773 C24.58390696 46.85343298 24.58390696 46.85343298 24.70947266 50.35693359 C24.22817205 52.71755097 23.54857431 54.77663705 22.625 57 C22.35196045 57.69907471 22.0789209 58.39814941 21.79760742 59.1184082 C21.1215651 60.7661967 20.38007055 62.38689473 19.625 64 C18.78839844 63.99363525 17.95179688 63.98727051 17.08984375 63.98071289 C13.9504944 63.97354245 10.81332061 63.99786015 7.67431641 64.04272461 C5.66187257 64.06214419 3.64918654 64.04605101 1.63671875 64.02929688 C-6.90426313 64.13511055 -6.90426313 64.13511055 -14.09765625 68.28125 C-16.5324683 70.84950785 -18.68847577 73.60730668 -20.8125 76.4375 C-25.22545633 80.84171781 -29.98100798 81.41738229 -35.99121094 81.44946289 C-40.31713778 81.0663285 -42.80594489 80.05855546 -45.76953125 76.83984375 C-48.52025488 73.19847543 -51.14522918 69.43668379 -52.375 65 C-51.56062402 59.67847421 -48.23964392 55.03814411 -45.4375 50.5 C-44.70551392 49.31132324 -44.70551392 49.31132324 -43.95874023 48.09863281 C-39.27271405 40.62325162 -34.03638989 33.75465044 -28.375 27 C-27.87822754 26.40171387 -27.38145508 25.80342773 -26.86962891 25.18701172 C-20.70543351 17.78175571 -14.40335694 10.60810467 -7.375 4 C-6.4675 3.13375 -5.56 2.2675 -4.625 1.375 C-2.375 0 -2.375 0 0 0 Z " fill="#62BA93" transform="translate(115.375,376)"/>
<path d="M0 0 C3.99496002 0.43468477 6.55106513 1.77462777 9.8125 4.0625 C10.60269531 4.61035156 11.39289063 5.15820312 12.20703125 5.72265625 C12.79871094 6.14417969 13.39039062 6.56570312 14 7 C12.575794 10.80962064 10.82091117 14.24403968 8.796875 17.76953125 C8.15363281 18.89294922 7.51039062 20.01636719 6.84765625 21.17382812 C6.14855234 22.38678495 5.44933056 23.59967384 4.75 24.8125 C4.02454649 26.07606103 3.29928874 27.33973448 2.57421875 28.60351562 C-2.47322821 37.39134678 -7.57224843 46.14882511 -12.69482422 54.89306641 C-15.87659408 60.33216689 -19.02964898 65.78633919 -22.1484375 71.26171875 C-22.50077454 71.88007599 -22.85311157 72.49843323 -23.21612549 73.13552856 C-24.92107575 76.12937667 -26.62273122 79.12500925 -28.3203125 82.12304688 C-32.71641243 89.85709458 -37.29227495 97.45290404 -42 105 C-53.75 99.375 -53.75 99.375 -56 96 C-49.73046875 85.1328125 -43.4609375 74.265625 -37.19140625 63.3984375 C-36.58071289 62.33987549 -35.97001953 61.28131348 -35.34082031 60.19067383 C-34.10719016 58.05243611 -32.87346523 55.91425307 -31.63964844 53.77612305 C-28.44895254 48.24655542 -25.26005015 42.71596566 -22.07421875 37.18359375 C-16.45024164 27.41988106 -10.82522407 17.65696476 -5.125 7.9375 C-4.71403076 7.23488037 -4.30306152 6.53226074 -3.87963867 5.80834961 C-1.12047717 1.12047717 -1.12047717 1.12047717 0 0 Z " fill="#9D7355" transform="translate(91,129)"/>
<path d="M0 0 C2.12636813 0.28151916 4.25108528 0.57553263 6.375 0.875 C7.55835938 1.03742188 8.74171875 1.19984375 9.9609375 1.3671875 C13 2 13 2 15 4 C2.71466285 37.48248158 -13.13636753 70.67801428 -39 96 C-40.30098717 94.78070272 -41.59042437 93.54907548 -42.875 92.3125 C-43.59429687 91.62800781 -44.31359375 90.94351563 -45.0546875 90.23828125 C-48.55432943 86.21158481 -48.55432943 86.21158481 -49 83 C-47.45370848 80.02375621 -45.33374316 77.56296151 -43.1875 75 C-41.96530215 73.47306923 -40.74526203 71.94440894 -39.52734375 70.4140625 C-38.9226123 69.66286133 -38.31788086 68.91166016 -37.69482422 68.13769531 C-21.48547531 47.69271418 -9.88667166 23.98727662 0 0 Z " fill="#CBCBCB" transform="translate(205,83)"/>
<path d="M0 0 C0.66 0 1.32 0 2 0 C3.3994459 1.93298465 4.72108593 3.92274015 6 5.9375 C8.3760117 10.13499505 8.3760117 10.13499505 12 13 C14.2562776 12.97779983 16.51205484 12.89395756 18.765625 12.78125 C20.14444882 12.73448215 21.5233621 12.69029394 22.90234375 12.6484375 C25.07487348 12.58077578 27.24252716 12.50042856 29.41259766 12.37597656 C41.46039809 11.71016982 41.46039809 11.71016982 45.19262695 14.83691406 C46.74680922 17.16126108 47.8926732 19.43667441 49 22 C49.66386719 23.02609375 50.32773438 24.0521875 51.01171875 25.109375 C51.84123047 26.41648437 51.84123047 26.41648437 52.6875 27.75 C53.24824219 28.63171875 53.80898437 29.5134375 54.38671875 30.421875 C55.95544743 32.92880219 57.47848429 35.46414048 59 38 C35.57 38 12.14 38 -12 38 C-7.39371593 18.42329272 -7.39371593 18.42329272 -4.3125 10.5625 C-4.00505859 9.74974609 -3.69761719 8.93699219 -3.38085938 8.09960938 C-1.25048998 2.50097997 -1.25048998 2.50097997 0 0 Z " fill="#97C5E4" transform="translate(54,458)"/>
<path d="M0 0 C2 1 2 1 3.00561523 3.44921875 C3.35309814 4.51785156 3.70058105 5.58648437 4.05859375 6.6875 C4.44466797 7.86183594 4.83074219 9.03617187 5.22851562 10.24609375 C5.62748047 11.48488281 6.02644531 12.72367187 6.4375 14 C6.83259766 15.20785156 7.22769531 16.41570312 7.63476562 17.66015625 C8.40636603 20.0198926 9.17516769 22.38054627 9.94091797 24.7421875 C11.27169046 28.8357394 12.63223037 32.91868097 14 37 C8.67097918 37.89257793 3.22835535 38.74237056 -2 37 C-4.61086374 34.97276649 -6.34028006 32.63885082 -8.125 29.875 C-8.55603027 29.21105225 -8.98706055 28.54710449 -9.43115234 27.86303711 C-11.28645308 24.61248342 -12.11717779 22.79513502 -11.5625 19.03125 C-9.5301812 15.08855153 -7.27987027 11.3501912 -4.875 7.625 C-4.40707031 6.88894531 -3.93914062 6.15289062 -3.45703125 5.39453125 C-2.31041087 3.59269922 -1.15598924 1.79583569 0 0 Z " fill="#549F7D" transform="translate(75,419)"/>
<path d="M0 0 C2.37713604 2.98900241 4.10594558 6.05979765 5.875 9.4375 C11.87960441 19.80908943 20.65170989 28.44255594 31.26953125 34.046875 C32.12611328 34.51867187 32.12611328 34.51867187 33 35 C33 35.33 33 35.66 33 36 C30.16560863 36.10901505 27.33549797 36.18777904 24.5 36.25 C23.31277344 36.30027344 23.31277344 36.30027344 22.1015625 36.3515625 C14.93448329 36.4690556 9.97576169 34.5553763 4.5390625 29.88671875 C-1.43768065 23.01956285 -3.42244598 17.48428349 -3.26953125 8.37890625 C-2.90325203 5.14609396 -1.7245744 2.73057613 0 0 Z " fill="#539E7C" transform="translate(355,244)"/>
<path d="M0 0 C0.33 0 0.66 0 1 0 C1.01417969 0.96679688 1.02835938 1.93359375 1.04296875 2.9296875 C1.53644599 16.40028256 4.93805855 23.63096402 14.79296875 32.96875 C15.88544922 33.97421875 15.88544922 33.97421875 17 35 C17.66 35.66 18.32 36.32 19 37 C16.36 38.98 13.72 40.96 11 43 C1.99125837 34.70122925 -5.06057538 27.80170052 -5.625 14.875 C-5.42108648 8.84968435 -4.19785352 4.43183224 0 0 Z " fill="#539E7B" transform="translate(230,198)"/>
<path d="M0 0 C2 1 2 1 2.75 2.66015625 C7.47498909 11.50474521 17.58704719 19.8844452 27 23 C28.66028896 23.36377118 30.32607127 23.70529424 32 24 C26.71746608 27.16441646 20.94380117 26.74383607 15 26 C5.97857526 22.8644238 -0.61272683 14.78236223 -7 8 C-6.02133662 6.85373678 -5.04205413 5.70800212 -4.0625 4.5625 C-3.51722656 3.92441406 -2.97195313 3.28632813 -2.41015625 2.62890625 C-1.63204305 1.73008851 -0.84063472 0.84063472 0 0 Z " fill="#529C7A" transform="translate(260,245)"/>
<path d="M0 0 C2.97828894 2.06189234 3.83637451 3.20005315 4.5625 6.75 C3.78731158 11.22886645 1.60304328 14.33714624 -1 18 C-4.99012371 17.44010697 -7.5255052 16.24330232 -10.8125 13.9375 C-11.60269531 13.38964844 -12.39289063 12.84179688 -13.20703125 12.27734375 C-13.79871094 11.85582031 -14.39039063 11.43429688 -15 11 C-13.74337944 6.49710965 -12.16038089 3.4566666 -9 0 C-5.81452856 -1.59273572 -3.39809153 -0.76164121 0 0 Z " fill="#9A7254" transform="translate(154,36)"/>
</svg>
